# xmcd
#
# Track frame offsets:
#	150
#	9375
#	12275
#	18275
#	25212
#	30435
#	34407
#	51977
#	55365
#	57922
#	59647
#	69840
#	75312
#	79515
#	87567
#	104487
#	113305
#	117020
#	135315
#	146815
#	154697
#	165607
#	173895
#	181822
#	188122
#
# Disc length: 2698 seconds
#
# Revision: 3
# Processed by: cddbd v1.5.2PL0 Copyright (c) Steve Scherf et al.
# Submitted via: EZCDAudioConverter 1.3.4.1
#
DISCID=3a0a8819
DTITLE=Hasil Adkins - Live In Chicago
DYEAR=1992
DGENRE=
TTITLE0=Hazel Jean Rock
TTITLE1=She Said
TTITLE2=No More Hot Dogs
TTITLE3=The Hunch
TTITLE4=When I Saw You
TTITLE5=Shake That Thing
TTITLE6=DPA Blues
TTITLE7=Reelin' And Rockin'
TTITLE8=Dottie Dottie
TTITLE9=Truley Ruley
TTITLE10=My Special One
TTITLE11=Maybellene
TTITLE12=Roll Roll Train
TTITLE13=I'm So Lonesome I Could Cry
TTITLE14=Hey John
TTITLE15=Sex Crazy Baby
TTITLE16=Bully Wooly
TTITLE17=Boo Boo The Cat
TTITLE18=This Ain't No Rock and Roll Show
TTITLE19=Foggy Mountain Top - She'll Be Comin' 'Round The Mountain
TTITLE20=Duncan
TTITLE21=She Said
TTITLE22=You Got Me Cryin'
TTITLE23=She's Mine
TTITLE24=Great Balls Of Fire
EXTD=
EXTT0=
EXTT1=
EXTT2=
EXTT3=
EXTT4=
EXTT5=
EXTT6=
EXTT7=
EXTT8=
EXTT9=
EXTT10=
EXTT11=
EXTT12=
EXTT13=
EXTT14=
EXTT15=
EXTT16=
EXTT17=
EXTT18=
EXTT19=
EXTT20=
EXTT21=
EXTT22=
EXTT23=
EXTT24=
PLAYORDER=
